<?xml version="1.0" encoding="UTF-8"?>
<svg id="a" data-name="Слой 1" xmlns="http://www.w3.org/2000/svg" viewBox="0 0 46.93 69.73">
  <g>
    <path d="M41.99,32.87c.35-.51,.86-1.39,1.52-2.66,1.62-2.89,2.6-4.33,2.93-4.33s.49,.2,.49,.61c0,2.48-1.29,5.62-3.88,9.42-4.66,6.84-10.87,10.26-18.62,10.26-2.18,0-4.18-.51-6-1.52-1.82-1.01-3.27-2.31-4.33-3.88-2.18-3.19-3.27-6.54-3.27-10.03,0-8.82,2.29-15.92,6.88-21.32C22.29,4.02,27.73,1.33,34.01,1.33c2.38,0,4.33,.7,5.85,2.09,1.52,1.39,2.28,3.15,2.28,5.28s-.53,4.1-1.6,5.93c-1.06,1.82-2.34,2.74-3.84,2.74s-2.24-.4-2.24-1.22c0-.91,.49-1.95,1.48-3.12,.99-1.17,1.48-2.33,1.48-3.5,0-3.6-1.91-5.4-5.74-5.4s-7.28,2.56-10.37,7.68c-3.09,5.12-4.64,10.39-4.64,15.81,0,3.75,1.06,7.08,3.19,9.99,2.13,2.91,5.12,4.37,8.97,4.37,4.56,0,8.94-3.04,13.15-9.12Z" fill="#334c80"/>
    <path d="M.13,20.3l12.22-2.18,31.1-5.55s.98-18.14-18-10.83c0,0-10.34,3.49-13.7,14.29-.15,.47-.51,.84-.99,.96L0,19.78l.13,.52Z" fill="#4667af"/>
  </g>
  <text transform="translate(5.73 62.05)" fill="#4667af" font-family="Cookie-Regular, Cookie" font-size="24"><tspan x="0" y="0">Capp</tspan></text>
  <path d="M22.24,3.3s.11-.99,1.05-.57l-1.05,.57Z" fill="#4667af"/>
</svg>