<svg width="316" height="344" viewBox="0 0 316 344" fill="none" xmlns="http://www.w3.org/2000/svg">
<g clip-path="url(#clip0_25_140)">
<path fill-rule="evenodd" clip-rule="evenodd" d="M183.29 52.1543H194.486V70.4909H241.564C252.186 70.4909 260.855 78.9453 260.855 89.3034V103.581C253.535 109.488 246.76 112.679 240.617 112.819C232.924 113.015 225.575 108.172 218.657 97.7298C218.283 97.1699 217.795 96.666 217.221 96.2741C214.666 94.4544 211.107 95.0143 209.241 97.5059C202.237 106.884 195.031 112.091 187.625 112.483C180.133 112.875 171.75 108.396 162.392 98.4017C162.277 98.2617 162.134 98.1497 162.019 98.0378C159.665 95.9661 156.048 96.1341 153.924 98.4017C145.14 107.808 136.93 112.679 129.294 112.763C121.83 112.847 114.309 108.256 106.73 98.7376C106.386 98.3177 105.984 97.9258 105.496 97.5899C102.912 95.8262 99.3241 96.4141 97.5156 98.9336C91.9179 106.66 85.4015 111.251 78.3972 112.483C73.6032 113.323 68.4361 112.539 62.9244 110.327C51.5567 105.764 55.6617 103.161 54.9153 89.3314C54.3412 79.0013 63.6134 70.4909 74.2347 70.4909H121.17V52.1543H132.365V70.4909H152.259V30.5703H163.454V70.4909H183.348V52.1543H183.29ZM0 321.604H316V344H0V321.604ZM260.855 117.354V117.97H259.85C260.166 117.774 260.511 117.578 260.855 117.354ZM256.377 119.846V177.291H59.6232V121.133C66.7424 123.905 73.718 124.661 80.3779 123.485C88.4731 122.057 95.8794 117.83 102.31 110.943C110.864 119.762 119.878 124.017 129.351 123.933C138.968 123.821 148.556 119.174 158.144 110.188C168.478 119.874 178.496 124.157 188.199 123.653C197.356 123.177 205.796 118.446 213.604 109.964C221.786 119.734 230.914 124.241 240.904 123.989C245.956 123.849 251.124 122.449 256.377 119.846ZM43.6337 187.425H272.596C287.121 187.425 298.977 199.015 298.977 213.152V232.693C288.959 240.783 279.715 245.122 271.275 245.346C260.769 245.598 250.722 239.02 241.22 224.714C240.703 223.958 240.072 223.258 239.268 222.699C235.766 220.207 230.886 220.963 228.359 224.378C218.771 237.2 208.925 244.339 198.792 244.87C188.544 245.402 177.09 239.299 164.287 225.61C164.114 225.442 163.942 225.274 163.77 225.106C160.555 222.251 155.617 222.503 152.689 225.61C140.69 238.46 129.437 245.122 118.988 245.234C108.797 245.346 98.4916 239.076 88.1286 226.058C87.6693 225.47 87.0952 224.938 86.435 224.49C82.9041 222.055 77.9953 222.895 75.5265 226.338C67.8906 236.92 58.9629 243.191 49.375 244.87C42.8012 246.018 35.7395 244.926 28.1897 241.903C12.6021 235.688 18.2573 232.133 17.2238 213.18C16.4488 199.043 29.1083 187.425 43.6337 187.425ZM298.977 251.533V252.373H297.599C298.059 252.121 298.518 251.841 298.977 251.533ZM292.863 254.949V315.109H23.7115V256.684C33.443 260.464 43.0022 261.499 52.1021 259.904C63.1828 257.944 73.3161 252.149 82.1003 242.743C93.7838 254.809 106.128 260.632 119.103 260.492C132.25 260.352 145.398 253.997 158.488 241.707C172.64 254.949 186.333 260.827 199.596 260.128C212.14 259.484 223.68 253.017 234.33 241.427C245.526 254.781 258.013 260.967 271.649 260.632C278.596 260.436 285.657 258.504 292.863 254.949ZM126.681 21.584C103.171 61.0007 150.335 55.0098 126.681 21.584V21.584ZM157.77 0C134.231 39.4167 181.424 33.4258 157.77 0V0ZM188.859 21.584C165.32 61.0007 212.485 55.0098 188.859 21.584V21.584Z" fill="white"/>
</g>
<defs>
<clipPath id="clip0_25_140">
<rect width="316" height="344" fill="white"/>
</clipPath>
</defs>
</svg>
