<svg width="50" height="50" viewBox="0 0 50 50" fill="none" xmlns="http://www.w3.org/2000/svg">
<g clip-path="url(#clip0_236_190)">
<path d="M49.1402 20.6839C48.6651 20.6839 48.2798 21.1696 48.2798 21.7672C48.2798 23.4253 48.2798 26.5768 48.2798 28.2339C48.2798 28.8315 48.6652 29.3162 49.1412 29.3162C49.6164 29.3162 49.9999 28.8314 49.9999 28.2339C49.9999 26.5778 49.9999 23.4262 49.9999 21.7662C49.9999 21.1696 49.6154 20.6839 49.1402 20.6839Z" fill="#7A7A7A"/>
<path d="M0.861526 20.6839C0.386367 20.6839 0 21.1696 0 21.7672C0 23.4272 0 26.5739 0.000999914 28.2319C0.000999914 28.8296 0.386367 29.3143 0.861526 29.3163C1.33679 29.3163 1.72115 28.8315 1.72115 28.234C1.72115 26.5769 1.72115 23.4263 1.72215 21.7663C1.72205 21.1696 1.33679 20.6839 0.861526 20.6839Z" fill="#7A7A7A"/>
<path d="M11.4558 10.8802C9.87056 10.8802 8.58447 12.3345 8.58447 14.1274C8.58447 19.5623 8.58547 30.4397 8.58647 35.8726C8.58647 37.6654 9.87056 39.1196 11.4559 39.1196C13.0413 39.1196 14.3273 37.6644 14.3273 35.8726C14.3273 33.7412 14.3273 30.7685 14.3273 27.6188C15.9824 27.6188 30.7972 27.6188 35.2129 27.6188C35.2129 30.7695 35.2129 33.7412 35.2129 35.8736C35.2129 37.6654 36.4989 39.1196 38.0843 39.1196C39.6696 39.1196 40.9538 37.6644 40.9538 35.8726C40.9538 30.4377 40.9538 19.5603 40.9538 14.1274C40.9538 12.3336 39.6695 10.8802 38.0843 10.8802C36.499 10.8802 35.2129 12.3326 35.2129 14.1274C35.2129 16.2587 35.2129 19.2304 35.2129 22.381C30.7955 22.381 15.9824 22.381 14.3273 22.381C14.3273 19.2304 14.3273 16.2586 14.3273 14.1264C14.3273 12.3327 13.0422 10.8802 11.4558 10.8802Z" fill="#7A7A7A"/>
<path d="M44.7563 15.2175C44.6625 15.2175 44.5698 15.2175 44.4752 15.2175C43.2808 15.2175 42.3113 16.1842 42.3113 17.3803C42.3113 21.1447 42.3113 28.8553 42.3113 32.6196C42.3113 33.8148 43.2807 34.7844 44.4759 34.7844C44.5697 34.7844 44.6644 34.7844 44.7571 34.7844C45.9523 34.7844 46.9217 33.8177 46.9217 32.6215C46.9217 28.8581 46.9217 21.1466 46.9209 17.3821C46.9219 16.1861 45.9515 15.2175 44.7563 15.2175Z" fill="#7A7A7A"/>
<path d="M5.21127 15.2175C5.11758 15.2175 5.02289 15.2175 4.92919 15.2175C3.734 15.2175 2.76538 16.1842 2.76538 17.3803C2.76538 21.1447 2.76538 28.8553 2.76538 32.6196C2.76538 33.8158 3.734 34.7844 4.92919 34.7844C5.02289 34.7844 5.11758 34.7844 5.21027 34.7844C6.40547 34.7844 7.37408 33.8177 7.37408 32.6215C7.37408 28.8581 7.37408 21.1466 7.37408 17.3821C7.37508 16.1861 6.40647 15.2175 5.21127 15.2175Z" fill="#7A7A7A"/>
</g>
<defs>
<clipPath id="clip0_236_190">
<rect width="50" height="50" fill="white"/>
</clipPath>
</defs>
</svg>
