<svg width="388" height="180" viewBox="0 0 388 180" fill="none" xmlns="http://www.w3.org/2000/svg">
<rect width="387.845" height="180" rx="16" fill="#F64B87"/>
<path d="M387.606 147.957C387.204 152.215 386.911 156.229 386.435 160.202C384.226 178.902 365.369 186.632 353.86 175.485C342.79 164.772 330.463 161.396 316.281 163.945C310.545 164.976 304.711 165.247 298.914 165.857C291.005 166.684 283.56 165.247 276.823 160.311C268.987 154.561 266.668 149.069 268.694 138.98C273.918 112.903 289.199 95.4635 309.215 82.5945C322.066 74.3224 336.151 73.224 350.357 77.2922C371.838 83.4217 382.822 99.8436 385.556 123.67C386.484 131.793 386.947 139.997 387.606 147.957ZM383.286 149.367C381.846 137.583 380.979 127.318 379.234 117.242C377.537 107.451 373.742 98.4198 366.162 92.5073C348.819 78.9873 325.752 72.6409 304.455 90.3512C291.957 100.739 280.741 112.225 274.528 128.565C269.561 141.611 271.636 147.509 283.377 152.662C294.581 157.571 306.237 159.483 317.929 155.076C330.28 150.411 341.594 151.334 352.224 160.27C355.056 162.657 358.473 164.298 361.805 165.803C368.359 168.773 374.95 168.271 379.356 161.884C381.858 158.263 382.261 152.852 383.286 149.367Z" fill="#C20A4A"/>
<path d="M376.061 181.248C370.141 189.127 360.353 191.975 352.578 187.907C348.465 185.764 344.572 183.066 340.715 180.394C332.99 175.051 324.776 173.817 315.83 175.282C307.335 176.678 298.645 178.238 290.151 177.695C278.959 176.99 270.879 167.823 269.195 155.958C279.349 170.915 293.275 169.83 307.311 168.447C314.194 167.769 321.102 167.43 327.986 166.644C334.308 165.925 339.727 168.108 344.731 172.149C347.404 174.305 350.15 176.339 352.81 178.509C359.206 183.757 366.004 185.656 373.571 181.818C374.23 181.492 375.048 181.479 376.061 181.248Z" fill="#C20A4A"/>
<path d="M379.844 143.346C379.844 145.869 379.661 148.337 379.881 150.75C380.881 162.25 371.154 166.291 364.124 163.47C360.463 162.006 356.716 160.216 353.628 157.666C342.387 148.391 330.402 147.333 317.428 152.106C305.638 156.446 294.08 154.249 282.901 149.232C274.748 145.57 273.174 141.19 276.249 131.874C281.424 116.171 291.786 105.146 303.246 94.9889C321.468 78.8382 340.312 79.3941 359.926 91.4089C370.361 97.796 375.109 108.265 377.171 120.551C378.428 128.077 378.978 135.766 379.844 143.346ZM331.916 96.9552C323.934 96.9688 318.161 99.7487 313.486 105.404C308.226 111.777 309.922 119.154 317.428 121.446C325.508 123.927 332.941 121.554 339.714 116.496C343.181 113.906 345.292 110.299 344.145 105.363C342.973 100.332 339.434 98.2164 335.26 97.1857C333.905 96.8467 332.453 96.9823 331.916 96.9552Z" fill="#C20A4A"/>
<path d="M323.458 114.462C321.846 113.54 319.918 112.442 317.99 111.343C319.43 109.323 320.516 106.448 322.396 105.485C325.093 104.102 328.388 103.6 331.378 103.749C332.855 103.817 334.808 105.96 335.418 107.655C335.723 108.509 333.734 111.099 332.33 111.804C329.828 113.065 326.973 113.472 323.458 114.462Z" fill="#C20A4A"/>
<path d="M168.553 120.537C164.005 121.34 161.046 122.259 157.502 123.964C155.545 124.917 150.312 127.943 150.312 128.144C150.312 128.244 154.225 130.184 157.201 131.571C165.46 135.4 173.217 138.242 182.663 140.867C185.154 141.552 189.067 142.673 191.374 143.358C197.961 145.297 210.216 148.524 214.512 149.444C218.425 150.28 228.038 151.952 228.974 151.952C229.024 151.952 229.041 152.286 229.024 152.704C228.974 153.339 228.924 153.456 228.623 153.456C227.403 153.456 217.171 151.517 211.336 150.179C202.91 148.24 181.242 142.154 173.719 139.613C165.861 136.955 157.669 133.494 151.115 130.067L149.176 129.03L148.657 130.083C148.39 130.669 148.139 131.438 148.106 131.805L148.055 132.474L152.068 134.196C176.293 144.595 192.661 149.343 223.708 154.961C227.336 155.63 230.679 156.298 231.131 156.482C231.599 156.65 231.984 156.767 232.017 156.75C232.034 156.716 231.95 156.332 231.816 155.88C231.265 154.058 231.616 151.182 232.652 149.109C233.99 146.451 237.701 142.439 239.992 141.168C240.56 140.867 242.149 140.265 243.519 139.83C246.429 138.911 247.248 138.526 248.552 137.473C249.739 136.503 250.675 136.069 251.628 136.069C252.581 136.069 253.868 136.671 254.621 137.456C255.106 137.975 255.156 138.108 254.972 138.326C254.771 138.56 254.721 138.56 254.403 138.276C253.835 137.757 253.367 137.573 252.598 137.573C251.812 137.573 251.578 137.707 250.073 138.944C248.803 139.998 247.983 140.466 246.278 141.084C240.844 143.091 239.49 143.943 237.033 146.902C234.675 149.711 233.889 151.483 233.873 153.874C233.856 156.181 234.642 158.355 236.665 161.565C238.838 165.042 240.343 165.728 243.77 164.842L245.024 164.524L245.308 164.875C245.659 165.327 245.626 165.36 244.305 165.895C239.624 167.851 236.849 166.681 234.241 161.632C233.288 159.759 232.385 158.84 231.047 158.355C230.546 158.171 227.369 157.502 223.959 156.9C192.778 151.249 176.377 146.485 151.7 135.918C145.765 133.377 145.481 133.31 140.365 133.327C136.854 133.344 136.269 133.377 133.577 133.862C129.648 134.547 127.09 135.132 125.017 135.818C122.994 136.487 120.219 137.607 120.219 137.774C120.219 137.841 121.891 139.011 123.947 140.365C133.192 146.535 142.221 151.3 152.737 155.546C155.863 156.817 160.143 158.555 162.25 159.425C175.842 164.992 187.863 168.988 197.627 171.178C198.864 171.462 199.967 171.713 200.084 171.763C200.335 171.847 199.85 173.184 199.549 173.184C199.181 173.184 193.882 171.83 190.605 170.911C184.519 169.189 179.002 167.416 174.137 165.611C167.315 163.053 162.333 161.13 159.006 159.726C157.117 158.923 153.656 157.485 151.316 156.516C140.883 152.236 129.08 145.766 120.319 139.53C119.266 138.794 118.931 138.627 118.764 138.777C118.48 139.011 117.794 140.148 117.56 140.783L117.393 141.252L121.69 143.81C146.133 158.372 162.183 164.959 195.018 173.937C198.596 174.906 201.656 175.776 201.823 175.876C201.99 175.96 202.141 176.027 202.174 176.027C202.207 176.027 202.241 175.408 202.241 174.639C202.308 170.576 205.468 167.065 211.988 163.839C214.713 162.501 215.8 162.15 219.194 161.481C222.454 160.846 223.039 160.645 225.229 159.508C226.817 158.689 227.152 158.589 228.272 158.505C229.777 158.422 230.596 158.723 231.649 159.809C232.251 160.428 232.284 160.495 232.034 160.746C231.783 160.996 231.716 160.98 231.131 160.545C230.596 160.127 230.345 160.06 229.492 160.06C228.556 160.06 228.339 160.144 226.634 161.113C224.677 162.217 223.206 162.735 220.364 163.32C215.098 164.407 210.667 166.514 207.507 169.439C204.849 171.897 204.013 174.823 205.066 177.983C205.685 179.822 207.006 182.53 207.641 183.249C208.995 184.787 211.236 185.372 214.061 184.904C214.83 184.77 214.88 184.787 215.031 185.188C215.114 185.422 215.164 185.623 215.131 185.657C215.098 185.707 214.362 185.891 213.493 186.075C211.47 186.526 209.229 186.442 207.741 185.891C205.819 185.155 204.18 182.931 203.094 179.604C202.726 178.467 202.709 178.434 201.723 177.932C201.071 177.581 198.713 176.846 195.119 175.859C176.477 170.743 164.54 166.831 153.656 162.25C143.474 157.954 131.504 151.751 119.55 144.595C115.37 142.087 115.136 141.97 113.23 141.486C110.321 140.75 107.88 140.533 102.162 140.516C97.2471 140.499 96.7456 140.533 94.7728 140.9C93.5857 141.118 92.6328 141.352 92.6495 141.402C92.6495 141.536 96.6453 145.063 98.9023 146.936C103.851 151.049 110.472 155.763 116.206 159.258C123.312 163.605 145.982 175.441 152.152 178.033C157.201 180.156 161.748 181.861 166.413 183.383C167.583 183.767 168.536 184.102 168.536 184.152C168.536 184.202 168.268 184.503 167.934 184.821L167.349 185.422L164.891 184.553C155.629 181.276 149.209 178.501 139.362 173.552C132.791 170.242 119.249 162.802 115.203 160.277C106.81 155.028 99.2868 149.36 92.7665 143.375L90.9943 141.736L89.941 142.004C87.9181 142.539 86.614 143.475 85.8449 144.963L85.4437 145.749L88.0017 147.822C108.532 164.491 123.262 173.335 147.052 183.266C152.653 185.59 166.296 190.906 166.697 190.906C166.764 190.906 166.864 190.572 166.897 190.154C167.115 188.248 169.171 185.389 171.395 183.868C173.786 182.263 175.775 181.51 180.741 180.407C184.068 179.655 184.185 179.638 187.896 179.287C190.672 179.036 192.929 178.618 194.283 178.116C194.701 177.966 195.637 177.799 196.373 177.749C197.493 177.682 197.877 177.732 198.68 178.033C199.7 178.417 200.569 179.069 201.154 179.889L201.489 180.373L201.087 180.557C200.736 180.708 200.619 180.674 200.235 180.29C199.181 179.237 197.76 179.12 195.42 179.855C192.828 180.674 191.925 180.858 188.732 181.209C185.305 181.577 184.034 181.811 180.657 182.647C176.544 183.667 173.735 185.071 171.629 187.145C169.639 189.084 169.004 191.04 169.472 193.732C170.057 197.126 171.144 199.082 173 200.051C174.187 200.687 175.257 200.937 177.263 201.071C178.684 201.172 178.818 201.222 178.868 201.539C178.935 201.991 178.333 202.108 175.809 202.108C171.997 202.108 169.506 200.82 168.051 198.112C167.449 196.958 166.864 194.869 166.864 193.815C166.864 193.264 166.78 193.046 166.546 192.912C166.362 192.829 163.403 191.659 159.976 190.338C138.777 182.162 126.756 176.545 114.451 169.038C105.523 163.605 93.569 154.911 84.357 147.17C81.7321 144.963 78.5389 143.709 72.6539 142.589C69.7615 142.037 68.2067 141.937 65.1304 142.104C62.2548 142.255 58.794 142.522 57.6571 142.689L57.0218 142.79L57.5735 143.542C61.0678 148.441 68.7918 156.767 74.8273 162.133C78.8899 165.745 90.7603 175.023 97.2304 179.655C104.319 184.704 109.853 188.248 115.454 191.324C117.594 192.495 124.365 195.939 124.917 196.122C125.084 196.189 124.984 196.39 124.549 196.825L123.947 197.427L120.286 195.537C110.522 190.472 103.684 186.225 94.3882 179.487C87.9849 174.84 77.8868 166.831 73.9914 163.304C67.5379 157.469 61.2349 150.698 56.8713 144.88C56.2026 143.993 55.6007 143.258 55.5338 143.258C55.2329 143.275 53.8118 144.512 53.3604 145.147C52.6582 146.184 52.491 146.652 51.2204 151.283C49.8829 156.215 49.7993 157.134 50.5684 158.723C50.9696 159.542 51.8557 160.528 55.584 164.29C76.031 184.938 90.476 195.17 119.868 209.882C126.104 212.992 127.542 213.56 130.919 214.129C134.363 214.714 136.787 214.864 141.987 214.764C146.367 214.697 147.136 214.647 149.226 214.246C155.796 213.008 164.139 210.35 166.63 208.695C168.486 207.458 169.272 205.92 169.171 203.73C169.138 203.027 169.138 202.442 169.154 202.442C169.171 202.442 169.539 202.66 169.99 202.944C171.345 203.78 172.615 204.014 175.725 204.014C179.069 204.014 182.429 203.562 188.164 202.359C193.246 201.272 195.62 200.469 200.285 198.179C204.548 196.089 207.089 194.2 207.925 192.495C208.31 191.675 208.36 191.441 208.276 190.204C208.243 189.435 208.143 188.649 208.076 188.465C207.959 188.114 207.992 188.097 210.868 188.014C215.248 187.897 219.177 187.061 223.591 185.322C232.067 182.012 239.273 176.311 239.841 172.465C239.908 172.047 239.841 171.262 239.674 170.509C239.524 169.824 239.373 169.055 239.323 168.821L239.223 168.386H240.627C242.901 168.369 246.362 167.283 250.157 165.393C254.036 163.454 256.192 161.882 258.633 159.258C260.857 156.85 262.295 154.911 263.264 153.038C264 151.617 264.033 151.483 263.95 150.514C263.833 149.36 263.248 147.655 262.562 146.585C261.425 144.779 256.276 138.075 255.457 137.323C253.768 135.801 253.233 135.634 248.251 135.066C219.327 131.772 203.378 128.712 179.403 121.858C173.702 120.236 173.501 120.186 171.913 120.203C171.027 120.219 169.506 120.353 168.553 120.537ZM254.27 145.348C258.082 145.766 257.931 145.699 256.293 146.401C252.548 148.006 249.455 150.514 247.281 153.707C246.144 155.396 245.442 156.867 245.325 157.82C245.225 158.606 245.208 158.656 244.79 158.572C244.556 158.522 243.152 158.321 241.697 158.137C238.888 157.77 238.537 157.653 238.253 157.134C237.952 156.583 238.069 156.064 238.838 154.56C241.012 150.313 245.492 146.434 249.522 145.348C250.642 145.047 251.528 145.047 254.27 145.348ZM261.275 146.919C263.549 148.123 261.292 152.236 256.359 155.83C254.253 157.368 250.692 158.973 249.354 158.973C247.415 158.973 246.964 157.92 248.05 155.847C250.04 152.002 254.32 148.424 258.784 146.852C259.854 146.468 260.472 146.485 261.275 146.919ZM230.663 167.182C232.402 167.45 233.839 167.717 233.873 167.734C233.906 167.767 233.522 167.885 233.037 168.002C229.024 168.955 224.778 170.994 221.651 173.469C219.294 175.358 217.187 177.832 217.187 178.735C217.187 178.902 217.104 179.036 216.987 179.036C216.435 179.036 210.366 177.632 210.049 177.431C209.062 176.812 209.447 176.027 211.904 173.602C215.181 170.359 218.943 168.202 223.29 167.065C225.346 166.53 226.884 166.564 230.663 167.182ZM237.417 168.971C238.287 169.523 238.47 170.242 237.986 171.262C237.668 171.947 235.678 173.887 234.241 174.89C229.894 177.966 222.32 180.474 220.397 179.471C219.244 178.869 219.628 177.598 221.518 175.809C224.56 172.95 228.105 170.927 232.736 169.423C235.712 168.47 236.481 168.386 237.417 168.971ZM195.503 185.473C196.172 185.606 197.944 186.058 199.466 186.459C201.789 187.061 202.124 187.195 201.639 187.278C201.321 187.328 200.184 187.496 199.131 187.646C193.347 188.482 187.679 190.706 183.516 193.799C182.881 194.267 182.162 194.969 181.911 195.353L181.476 196.056L178.015 195.002C176.109 194.434 174.404 193.832 174.22 193.665C173.434 192.963 174.12 192.077 176.812 190.321C182.463 186.626 190.722 184.47 195.503 185.473ZM205.384 188.398C206.956 188.984 206.805 190.505 205.033 191.826C203.829 192.729 200.151 194.484 197.877 195.236C194.366 196.39 189.902 197.259 187.244 197.293C185.89 197.31 184.87 196.975 184.519 196.39C183.8 195.22 188.481 192.127 193.614 190.371C196.306 189.452 197.877 189.117 202.809 188.348C203.662 188.215 204.966 188.231 205.384 188.398ZM159.357 191.742C160.494 192.16 161.247 192.779 161.782 193.682C162.149 194.317 162.199 194.484 161.999 194.601C161.598 194.852 161.347 194.768 160.829 194.183C159.892 193.113 158.388 192.862 155.83 193.364C154.693 193.581 153.205 193.648 148.557 193.665C143.04 193.715 140.415 193.865 138.86 194.267C136.971 194.752 133.36 196.039 132.189 196.641C130.417 197.56 128.896 198.998 128.244 200.369C127.608 201.69 127.458 202.894 127.625 205.034C128.01 209.782 129.08 210.902 133.878 211.554C135.817 211.805 135.934 211.855 135.934 212.34C135.934 212.691 135.884 212.691 133.477 212.59C130.869 212.473 129.548 212.223 128.21 211.537C125.736 210.283 124.917 208.461 124.9 204.265C124.9 201.623 125.067 200.67 125.836 199.149C126.906 197.025 129.381 194.919 132.173 193.765C134.012 192.996 137.623 192.127 140.264 191.809C142.12 191.592 143.525 191.558 147.805 191.642C152.034 191.725 153.355 191.709 154.492 191.508C156.231 191.207 158.22 191.307 159.357 191.742ZM155.144 199.015C156.197 199.215 160.143 200.486 163.855 201.824C163.988 201.874 163.387 201.924 162.517 201.941C157.201 201.991 152.218 202.76 147.805 204.214C145.33 205.034 142.137 206.605 141.351 207.408L140.699 208.043L137.89 206.839C133.711 205.034 133.427 204.85 133.427 204.181C133.427 203.663 134.162 203.128 136.135 202.191C141.635 199.583 150.413 198.129 155.144 199.015ZM166.597 203.295C167.366 203.512 168.202 204.281 168.202 204.749C168.202 207.324 156.014 210.467 147.587 210.099C145.113 209.982 143.792 209.447 143.792 208.528C143.792 207.073 150.212 204.599 156.348 203.696C159.759 203.195 165.426 202.977 166.597 203.295Z" fill="#C20A4A"/>
<g clip-path="url(#clip0_397_7)">
<path d="M307.906 14.0871C305.045 14.2962 301.965 14.7665 299.287 15.4111C289.557 17.7456 279.976 22.5017 271.856 29.0261C266.79 33.0941 259.965 40.2892 255.091 46.7091C246.849 57.5627 241.704 69.0523 240.426 79.4617C240.234 81.0209 240.207 85.0017 240.382 86.169C240.916 89.7056 241.992 92.3885 243.996 95.1847C244.329 95.6376 244.609 96.047 244.617 96.0906C244.635 96.1254 244.434 96.2387 244.18 96.3345C242.894 96.8136 240.129 98.6864 239.306 99.6446C238.694 100.368 238.974 100.995 240.794 102.972C242.605 104.941 243.007 105.699 242.771 106.639C242.684 107.005 242.684 107.075 242.85 107.328C243.235 107.963 243.865 108.416 245.247 109.07C246.052 109.453 246.735 109.845 246.962 110.045C247.356 110.402 247.837 111.274 247.837 111.639C247.837 111.84 247.846 111.831 248.179 111.535C249.027 110.768 249.736 111.099 251.066 112.868C251.644 113.634 252.002 114 252.186 114C252.361 114 252.632 113.373 252.877 112.467C252.991 112.014 253.149 111.5 253.219 111.326C253.411 110.873 254.006 110.054 255.047 108.826C256.36 107.267 256.369 107.258 256.36 105.768C256.36 104.418 256.185 103.416 255.721 102.084C255.572 101.666 255.476 101.317 255.485 101.3C255.502 101.282 255.782 101.352 256.106 101.448C257.401 101.848 258.337 101.988 259.982 102.04C261.724 102.092 262.599 102.014 264.069 101.674C268.006 100.76 271.532 98.3467 273.711 95.0888C274.14 94.4443 274.184 94.331 276.021 89.2613C278.856 81.4564 279.985 78.6777 281.752 75.1498C284.246 70.2108 286.337 67.2927 289.96 63.7387C291.946 61.7962 292.751 61.0557 294.256 59.784C298.246 56.4042 301.694 54.3571 305.544 53.0592C308.072 52.2143 310.076 51.8659 313.944 51.5871C321.486 51.047 325.187 50.1934 328.775 48.1638C329.799 47.5801 330.586 47.0139 331.619 46.1341C333.054 44.9233 333.29 44.5836 333.5 43.5732C333.561 43.2857 333.622 43.0244 333.64 42.9895C333.666 42.9547 333.815 42.9895 333.981 43.0592C334.532 43.2857 335.18 43.1899 335.574 42.8153L335.766 42.6411L335.871 43.0157C336.002 43.4599 336.029 46.0993 335.924 47.3188C335.836 48.3293 335.889 48.4425 336.737 48.8606C338.19 49.5836 339.984 49.4617 342.031 48.5035C344.131 47.5279 346.152 45.5941 346.45 44.2875C346.66 43.3206 347.089 42.8066 348.707 41.5871C350.081 40.5418 350.492 40.1324 350.799 39.4617C351.122 38.7648 351.052 38.1638 350.527 37.1272C350.239 36.5436 350.116 36.169 350.046 35.6725C349.88 34.4442 349.539 33.7125 348.742 32.885C348.279 32.3972 348.279 32.3885 348.366 32.0575C348.62 31.1603 348.41 29.8275 347.815 28.5906C347.456 27.8502 346.59 26.5348 346.31 26.3171C346.1 26.1516 345.304 26.0906 344.691 26.1864C343.807 26.3345 343.282 26.5261 341.716 27.2927L340.255 28.007L339.984 28.8868C339.817 29.4007 339.616 29.8624 339.494 30.0017L339.266 30.2456L339.117 30.0279C338.802 29.5749 338.356 29.1394 338.05 28.9826L337.726 28.8171L337.674 27.8328C337.647 27.2927 337.569 26.6916 337.499 26.5C337.201 25.6899 335.18 22.7282 334.06 21.4477C330.079 16.9268 325.616 14.9321 317.837 14.2178C316.14 14.061 309.507 13.9739 307.906 14.0871Z" fill="#C20A4A"/>
</g>
<defs>
<clipPath id="clip0_397_7">
<rect width="112" height="100" fill="white" transform="translate(239 14)"/>
</clipPath>
</defs>
</svg>
