<svg width="52" height="324" viewBox="0 0 52 324" fill="none" xmlns="http://www.w3.org/2000/svg">
<path d="M0 322H52M0 314H24M0 306H24M0 298H24M0 290H24M0 282H32M0 274H24M0 266H24M0 258H24M0 250H24M0 242H52M0 234H24M0 226H24M0 218H24M0 210H24M0 202H32M0 194H24M0 186H24M0 178H24M0 170H24M0 162H52M0 154H24M0 146H24M0 138H24M0 130H24M0 122H32M0 114H24M0 106H24M0 98H24M0 90H24M0 82H52M0 74H24M0 66H24M0 58H24M0 50H24M0 42H32M0 34H24M0 26H24M0 18H24M0 10H24M0 2H52" stroke="white" stroke-width="3"/>
</svg>
