<svg width="46" height="44" viewBox="0 0 46 44" fill="none" xmlns="http://www.w3.org/2000/svg">
<path d="M44.8473 18.1967L44.7863 18.1309L44.7159 18.0698L25.7629 1.1276C25.0166 0.399359 24.0403 0 23.003 0C21.9657 0 20.9894 0.399359 20.2431 1.1276L1.29013 18.0698L1.21972 18.1309L1.15401 18.1967C0.0134503 19.376 -0.315106 21.1191 0.318539 22.646C0.61424 23.3555 1.0883 23.9569 1.69848 24.3985C2.36967 24.8777 3.26147 25.5825 4.09225 25.5825V39.9077C4.09225 42.1348 5.9791 44 8.18043 44H15.3383C17.5396 44 19.4265 42.1348 19.4265 39.9077V31.7185H26.5796V39.903C26.5796 42.1301 27.4432 43.9953 29.6446 43.9953H37.8209C40.0223 43.9953 41.9091 42.1301 41.9091 39.903V25.5778L43.9556 24.5536C44.7863 24.5536 43.627 24.873 44.2982 24.3938C44.9084 23.9569 45.3871 23.3508 45.6781 22.6413C46.3165 21.1191 45.9879 19.3713 44.8473 18.1967ZM42.0077 22.5474H38.8582V39.95C38.8582 40.7581 37.605 40.9226 36.8071 40.9226H31.6957C30.8978 40.9226 29.6493 40.7065 29.6493 39.8983V28.6411H16.3615V39.8983C16.3615 40.7065 15.113 40.9226 14.315 40.9226H9.20834C8.41042 40.9226 7.1619 40.7065 7.1619 39.8983V22.5098H4.09694C2.81087 22.5098 2.65129 20.3156 4.09694 19.4418L21.4729 4.09226C21.7545 3.80096 22.7073 3.06802 23.0781 3.06802C23.4489 3.06802 24.2562 3.80096 24.5379 4.09226L41.9185 19.4418C43.2468 20.3156 43.2937 22.5474 42.0077 22.5474Z" fill="#F83D7F"/>
</svg>
