<svg width="425" height="425" viewBox="0 0 425 425" fill="none" xmlns="http://www.w3.org/2000/svg">
<g clip-path="url(#clip0_18_2)">
<path d="M156.506 165.502C195.712 139.01 285.777 68.425 332.917 109.508C380.056 150.592 354.273 347.721 215.333 326.506C163.129 318.537 84.2917 314.11 73.2417 289.673C54.8604 248.944 132.033 182.042 156.506 165.502Z" fill="#E9E8E8"/>
<path d="M305.362 343.223H286.344C282.59 343.223 279.544 346.269 279.544 350.023V353.21H312.198V350.023C312.198 346.269 309.152 343.223 305.362 343.223Z" fill="white"/>
<path d="M213.917 89.5687C212.181 86.1687 211.792 83.2646 212.748 80.9271C214.2 77.4208 218.521 72.3562 226.135 71.825C233.75 71.2937 240.904 76.7125 243.95 83.6896C246.004 88.3292 246.606 93.6417 245.756 99.5917C244.8 101.646 243.631 102.85 242.179 103.169C240.019 103.629 235.379 103.417 233.608 102.142C232.404 101.292 225.852 97.1125 213.917 89.5687Z" fill="#1D252E"/>
<path d="M214.873 89.3562L213.988 95.1292L215.935 101.221L220.008 105.081L223.869 106.498L225.215 112.873L225.887 117.158L214.59 118.717L220.858 124.667L238.815 127.642L254.256 118.787C251.388 117.619 247.244 117.194 242.498 117.123L236.477 116.415L233.467 104.408L235.804 99.4854L236.477 95.1292L239.133 94.2437L239.062 89.7812L236.654 88.0104H232.9L229.783 84.5396L229.571 81.1396L220.823 88.0812L214.873 89.3562Z" fill="white"/>
<path d="M214.873 89.3562C213.669 92.8979 213.881 96.7937 215.404 100.194C216.963 103.7 219.902 105.754 224.223 106.392L225.887 117.194C224.329 117.194 222.806 117.371 221.283 117.725" stroke="#1D252E" stroke-width="2" stroke-linecap="round"/>
<path d="M214.979 88.9312C216.006 89.3917 217.777 89.0021 220.327 87.7979C222.842 86.5937 225.923 84.3979 229.571 81.175C229.358 82.7333 229.677 84.3271 230.527 85.6729C231.271 86.9833 232.475 87.975 233.856 88.4708C236.017 87.4083 237.575 87.6917 238.567 89.3562C240.054 91.8 239.629 94.1729 238.815 94.7396C238.283 95.0937 237.504 95.2708 236.513 95.2354C236.831 96.5812 236.513 98.2812 235.627 100.3C234.706 102.319 233.963 103.487 233.396 103.771L236.087 116.556L242.392 116.946" stroke="#1D252E" stroke-width="2" stroke-linecap="round"/>
<path d="M223.054 106.179C223.94 106.462 224.896 106.569 225.817 106.498C227.198 106.392 228.544 106.073 229.819 105.471" stroke="#1D252E" stroke-width="2" stroke-linecap="round"/>
<path d="M241.896 104.408C242.64 104.479 243.383 104.338 244.021 103.983C244.835 103.594 245.615 102.708 246.394 101.292" stroke="#1D252E" stroke-width="2" stroke-linecap="round"/>
<path d="M242.427 105.719C243.029 105.86 243.915 105.683 245.19 105.152C246.465 104.621 247.315 103.558 247.846 101.965C248.944 101.717 250.219 102.567 251.742 104.444C254.008 107.242 253.831 111.421 255.567 113.227C256.735 114.431 258.4 115.423 260.56 116.202C254.433 118.292 249.9 117.76 246.925 114.679C244.021 111.598 242.498 108.623 242.427 105.719Z" fill="#1D252E"/>
<path d="M208.817 121.656C205.204 125.41 195.252 142.658 195.252 142.658L176.835 131.148C173.719 123.179 169.221 118.15 161.571 119.956C161.571 124.029 163.165 128.102 165.892 132.14L169.646 134.335L195.712 157.073L201.025 160.544L204.567 159.835L221.85 128.492C221.248 119.46 214.767 115.494 208.817 121.656Z" fill="white"/>
<path d="M211.792 119.637C208.888 119.921 194.969 142.587 195.217 142.658L176.8 131.148C173.683 123.179 169.185 118.15 161.535 119.956C161.535 124.029 163.129 128.102 165.856 132.14L169.61 134.335L195.677 157.073L200.99 160.544L204.531 159.835L211.154 148.042" stroke="#1D252E" stroke-width="2" stroke-linecap="round"/>
<path d="M218.131 117.406C221.283 117.725 223.302 124.242 229.465 125.092C235.627 125.942 237.398 122.01 245.402 116.84C251.99 117.017 254.681 116.981 259.144 124.348C265.696 136.779 255.46 153.213 255.46 153.213L262.083 198.121L215.617 194.721C216.679 187.779 217.883 182.679 218.379 179.74C220.363 167.769 218.627 157.675 218.875 155.692C202.619 138.231 214.979 117.088 218.131 117.406Z" fill="#3AD882"/>
<path d="M134.442 319.246L158.029 307.133L187.39 235.379L219.937 194.012L234.21 205.275L203.221 244.623L169.894 326.117L135.256 323.425C134.052 323.319 133.131 322.256 133.202 321.052C133.308 320.273 133.769 319.6 134.442 319.246Z" fill="white"/>
<path d="M207.046 239.806L203.221 244.658L169.894 326.152L135.256 323.46C134.052 323.354 133.131 322.292 133.238 321.087C133.308 320.308 133.733 319.635 134.442 319.281L158.029 307.169L187.39 235.415L196.633 223.656" stroke="#1D252E" stroke-width="2" stroke-linecap="round"/>
<path d="M360.577 234.742L339.079 225.958C339.079 225.958 289.425 262.331 282.377 262.792C275.329 263.252 247.137 213.598 247.137 213.598L262.65 204.142L284.219 240.196L340 205.594L361.533 232.156C362.596 233.183 361.887 234.883 360.577 234.742Z" fill="white"/>
<path d="M277.206 228.792L284.254 240.231L340.035 205.629L361.569 232.192C362.56 233.183 361.887 234.919 360.542 234.742L339.079 225.958C339.079 225.958 286.663 263.642 281.704 262.544C276.746 261.446 261.906 238 261.906 238" stroke="#1D252E" stroke-width="2" stroke-linecap="round"/>
<path d="M194.65 216.113C194.933 215.05 215.475 192.596 215.475 192.596C215.475 192.596 260.383 191.179 262.827 191.852C266.758 192.95 282.944 218.698 281.633 221.142C280.323 223.585 260.95 240.267 256.027 238.354C251.104 236.442 239.665 218.84 240.054 219.902C240.16 207.329 217.458 238.956 217.458 238.956C217.458 238.956 193.942 218.91 194.65 216.113Z" fill="#1D252E"/>
<path d="M252.698 131.927C257.16 135.292 275.542 153.956 275.542 153.956L269.733 173.86C262.685 178.004 259.037 183.033 263.217 190.01C267.325 189.373 270.902 187.283 274.09 184.06L275.152 180.2L289.956 156.294L293.569 151.69L292.896 148.042C292.896 148.042 268.281 124.737 258.931 119.85C249.581 114.962 245.437 126.438 252.698 131.927Z" fill="white"/>
<path d="M262.508 140.888C269.521 147.581 275.542 153.956 275.542 153.956L269.733 173.86C262.685 178.004 259.037 183.033 263.217 190.01C267.325 189.373 270.902 187.283 274.09 184.06L275.152 180.2L289.956 156.294C289.956 156.294 293.533 153.708 293.144 149.635C292.754 145.563 260.915 118.646 256.948 118.823" stroke="#1D252E" stroke-width="2" stroke-linecap="round"/>
<path d="M125.41 141.313C124.454 138.16 121.515 135.965 118.221 135.965H108.446C105.223 135.965 102.39 138.019 101.327 141.029C101.221 141.313 101.15 141.631 101.079 141.95C100.831 143.154 100.867 144.429 101.221 145.633V145.669V145.704L119.142 198.262L120.169 195.677L121.833 191.64C123.073 188.594 126.012 186.575 129.306 186.575H140.71L125.41 141.313Z" fill="#3AD882"/>
<path d="M227.41 210.021H140.002L148.75 188.346H217.281C218.733 188.346 220.115 188.983 221.035 190.081L223.231 192.631L231.165 201.804C232.971 203.894 232.723 207.01 230.669 208.781C229.748 209.596 228.579 210.021 227.41 210.021Z" fill="#AB91C4"/>
<path d="M231.838 201.238L223.904 192.065L223.727 191.888L223.479 191.817C222.842 191.604 222.169 191.498 221.531 191.498H147.51L147.156 192.419H221.567C222.133 192.419 222.7 192.525 223.231 192.702L231.165 201.875C232.971 203.965 232.723 207.081 230.669 208.852C229.783 209.631 228.615 210.056 227.41 210.056H140.002L139.648 210.977H227.41C230.633 210.977 233.29 208.356 233.29 205.133C233.254 203.646 232.758 202.3 231.838 201.238Z" fill="#6E5B92"/>
<path d="M184.91 207.365C180.023 207.365 175.56 203.433 174.888 198.581C174.604 196.633 175.773 195.04 177.473 195.04H219.725C220.504 195.075 221.213 195.429 221.708 196.031L227.588 202.725C229.217 204.567 228.473 207.4 226.383 207.4H184.91V207.365Z" fill="#6E5B92"/>
<path d="M92.8271 343.223H73.8083C70.0542 343.223 67.0083 346.269 67.0083 350.023V353.21H99.6625V350.023C99.6271 346.269 96.5813 343.223 92.8271 343.223Z" fill="white"/>
<path d="M66.9729 350.023V353.21H99.6271V350.023C99.6271 349.846 99.6271 349.669 99.5917 349.492" stroke="#1D252E" stroke-width="2" stroke-linecap="round"/>
<path d="M279.544 349.669C279.544 349.775 279.544 349.917 279.544 350.023V353.21H312.198V350.023" stroke="#1D252E" stroke-width="2" stroke-linecap="round"/>
<path d="M305.256 327.144H119.39V333.696H305.256C307.063 333.767 308.585 332.35 308.656 330.508C308.727 328.702 307.31 327.179 305.469 327.108C305.398 327.108 305.327 327.108 305.256 327.144Z" fill="#1D252E"/>
<path d="M306.319 332.315L129.554 332.279C129.165 326.967 124.773 322.858 119.46 322.858H106.604V295.198H72.1438C67.0438 295.198 62.9354 299.306 62.9354 304.406V334.829V346.871H315.279V344.179C315.279 338.3 311.49 334.298 306.319 332.315Z" fill="#3AD882"/>
<path d="M232.546 200.635L224.613 191.462L222.417 188.913C221.142 187.425 219.265 186.54 217.281 186.54H129.342C126.048 186.54 123.073 188.523 121.869 191.604L80.0417 295.198H105.612L139.258 211.827H227.375C231.129 211.827 234.14 208.781 234.14 205.062C234.175 203.433 233.608 201.875 232.546 200.635Z" fill="#3AD882"/>
<path d="M129.554 332.279H67.9292" stroke="#1D252E" stroke-width="2" stroke-linecap="round"/>
<path d="M106.604 322.858H67.6104" stroke="#1D252E" stroke-width="2" stroke-linecap="round"/>
<path d="M106.108 312.906V295.198L147.865 190.435H216.396" stroke="#1D252E" stroke-width="2" stroke-linecap="round"/>
<path d="M139.825 211.827H194.721" stroke="#1D252E" stroke-width="2" stroke-linecap="round"/>
<path d="M170.248 196.421H221.708L224.967 200.352C225.994 201.592 225.817 203.398 224.613 204.46C224.081 204.885 223.444 205.133 222.735 205.133H175.738C172.692 205.133 170.248 202.69 170.248 199.644V196.421Z" stroke="#1D252E" stroke-width="2" stroke-linecap="round"/>
<path d="M136.673 186.929L122.258 145.385C120.063 138.16 108.41 140.817 108.41 140.817C106.498 141.348 105.365 143.296 105.896 145.208C105.931 145.279 105.931 145.35 105.967 145.421L123.144 195.394" stroke="#1D252E" stroke-width="2" stroke-linecap="round"/>
<path d="M125.162 191.002L82.3792 298.492H72.7104" stroke="#1D252E" stroke-width="2" stroke-linecap="round"/>
<path d="M115.812 140.746L132.352 188.098" stroke="#1D252E" stroke-width="2" stroke-linecap="round"/>
<path d="M214.837 120.204C206.444 135.646 212.146 145.846 218.875 155.656" stroke="#1D252E" stroke-width="2" stroke-linecap="round"/>
<path d="M251.317 144.181L255.425 153.177L256.771 163.979" stroke="#1D252E" stroke-width="2" stroke-linecap="round"/>
<path d="M259.25 142.588C259.71 145.031 257.94 148.892 255.425 153.177" stroke="#1D252E" stroke-width="2" stroke-linecap="round"/>
</g>
<defs>
<clipPath id="clip0_18_2">
<rect width="425" height="425" fill="white"/>
</clipPath>
</defs>
</svg>
