<svg width="57" height="57" viewBox="0 0 57 57" fill="none" xmlns="http://www.w3.org/2000/svg">
<path d="M26.7188 3.5625C20.5802 3.57192 14.6958 6.01462 10.3552 10.3552C6.01462 14.6958 3.57192 20.5802 3.5625 26.7188C3.57192 32.8573 6.01462 38.7417 10.3552 43.0823C14.6958 47.4229 20.5802 49.8656 26.7188 49.875C32.8573 49.8656 38.7417 47.4229 43.0823 43.0823C47.4229 38.7417 49.8656 32.8573 49.875 26.7188C49.8656 20.5802 47.4229 14.6958 43.0823 10.3552C38.7417 6.01462 32.8573 3.57192 26.7188 3.5625ZM26.7188 7.125C37.5594 7.125 46.3125 15.8781 46.3125 26.7188C46.3201 31.2929 44.7242 35.7251 41.8024 39.2445C41.05 37.1014 39.853 35.1415 38.2899 33.4937C36.7267 31.8458 34.8327 30.5471 32.7322 29.6827C33.6402 28.8546 34.3662 27.8468 34.8641 26.7233C35.3621 25.5999 35.6212 24.3851 35.625 23.1562C35.625 18.2578 31.6172 14.25 26.7188 14.25C24.3587 14.2566 22.0972 15.197 20.4283 16.8658C18.7595 18.5347 17.8191 20.7962 17.8125 23.1562C17.8125 25.7319 18.9383 28.0547 20.7088 29.6827C18.6096 30.5471 16.7171 31.846 15.1557 33.494C13.5943 35.142 12.3993 37.1017 11.6494 39.2445C8.71758 35.7298 7.11592 31.2957 7.125 26.7188C7.125 15.8781 15.8781 7.125 26.7188 7.125ZM26.7188 17.8125C29.697 17.8125 32.0625 20.178 32.0625 23.1562C32.0625 26.1345 29.697 28.5 26.7188 28.5C26.0157 28.5047 25.3187 28.3697 24.6682 28.1029C24.0177 27.836 23.4268 27.4426 22.9296 26.9454C22.4324 26.4482 22.039 25.8573 21.7721 25.2068C21.5053 24.5563 21.3703 23.8593 21.375 23.1562C21.375 20.178 23.7405 17.8125 26.7188 17.8125ZM26.7188 32.0625C32.775 32.0625 37.7411 36.3624 38.8954 42.0696C35.4346 44.8229 31.1412 46.319 26.7188 46.3125C22.3003 46.3214 18.0105 44.8249 14.5564 42.0696C15.1103 39.2507 16.6259 36.7118 18.8443 34.8865C21.0626 33.0613 23.846 32.0631 26.7188 32.0625Z" fill="#7A7A7A"/>
</svg>
