<svg width="47" height="47" viewBox="0 0 47 47" fill="none" xmlns="http://www.w3.org/2000/svg">
<path d="M23.7188 0.5625C17.5802 0.571922 11.6958 3.01462 7.35522 7.35522C3.01462 11.6958 0.571922 17.5802 0.5625 23.7188C0.571922 29.8573 3.01462 35.7417 7.35522 40.0823C11.6958 44.4229 17.5802 46.8656 23.7188 46.875C29.8573 46.8656 35.7417 44.4229 40.0823 40.0823C44.4229 35.7417 46.8656 29.8573 46.875 23.7188C46.8656 17.5802 44.4229 11.6958 40.0823 7.35522C35.7417 3.01462 29.8573 0.571922 23.7188 0.5625ZM23.7188 4.125C34.5594 4.125 43.3125 12.8781 43.3125 23.7188C43.3201 28.2929 41.7242 32.7251 38.8024 36.2445C38.05 34.1014 36.853 32.1415 35.2899 30.4937C33.7267 28.8458 31.8327 27.5471 29.7322 26.6827C30.6402 25.8546 31.3662 24.8468 31.8641 23.7233C32.3621 22.5999 32.6212 21.3851 32.625 20.1562C32.625 15.2578 28.6172 11.25 23.7188 11.25C21.3587 11.2566 19.0972 12.197 17.4283 13.8658C15.7595 15.5347 14.8191 17.7962 14.8125 20.1562C14.8125 22.7319 15.9383 25.0547 17.7088 26.6827C15.6096 27.5471 13.7171 28.846 12.1557 30.494C10.5943 32.142 9.39933 34.1017 8.64937 36.2445C5.71758 32.7298 4.11592 28.2957 4.125 23.7188C4.125 12.8781 12.8781 4.125 23.7188 4.125ZM23.7188 14.8125C26.697 14.8125 29.0625 17.178 29.0625 20.1562C29.0625 23.1345 26.697 25.5 23.7188 25.5C23.0157 25.5047 22.3187 25.3697 21.6682 25.1029C21.0177 24.836 20.4268 24.4426 19.9296 23.9454C19.4324 23.4482 19.039 22.8573 18.7721 22.2068C18.5053 21.5563 18.3703 20.8593 18.375 20.1562C18.375 17.178 20.7405 14.8125 23.7188 14.8125ZM23.7188 29.0625C29.775 29.0625 34.7411 33.3624 35.8954 39.0696C32.4346 41.8229 28.1412 43.319 23.7188 43.3125C19.3003 43.3214 15.0105 41.8249 11.5564 39.0696C12.1103 36.2507 13.6259 33.7118 15.8443 31.8865C18.0626 30.0613 20.846 29.0631 23.7188 29.0625Z" fill="#7A7A7A"/>
</svg>
