<svg width="46" height="46" viewBox="0 0 46 46" fill="none" xmlns="http://www.w3.org/2000/svg">
<path d="M13.3408 15.4332L13.3407 19.4428C13.3407 20.164 13.1353 20.7507 12.7466 21.1393C12.6487 21.2372 12.5382 21.3232 12.4163 21.3974V15.4333H9.68352V21.3973C9.56169 21.3231 9.45137 21.237 9.35353 21.1392C8.96486 20.7506 8.75939 20.164 8.75948 19.4427V15.4334H6.02661V19.4426C6.02652 20.9045 6.5088 22.1594 7.42117 23.0717C8.03426 23.6847 8.80242 24.1024 9.68343 24.3113V36.3138H12.4162V24.3113C13.2975 24.1025 14.0658 23.6846 14.6788 23.0718C15.5912 22.1595 16.0735 20.9047 16.0735 19.4428L16.0736 15.4333L13.3408 15.4332Z" fill="#7A7A7A"/>
<path d="M34.9498 14.9778C32.5785 14.9779 30.6494 16.9071 30.6494 19.2781V22.484C30.6495 24.3776 31.8803 25.988 33.5835 26.5604V36.3137H36.3163V26.5606C38.0195 25.9881 39.2502 24.3777 39.2502 22.4842L39.2502 19.2777C39.2499 16.9069 37.3208 14.9779 34.9498 14.9778ZM36.5175 22.4842C36.5175 23.3485 35.8144 24.0516 34.9501 24.0517C34.0856 24.0516 33.3824 23.3485 33.3824 22.4842V19.2782C33.3824 18.4139 34.0856 17.7108 34.9499 17.7107C35.8142 17.7108 36.5174 18.414 36.5176 19.2781L36.5175 22.4842Z" fill="#7A7A7A"/>
<path d="M42.5636 2.86493L26.7177 6.70251C25.0646 7.08112 23.8465 7.72377 23 8.66488C22.1534 7.72377 20.9355 7.08121 19.2823 6.7026L3.43643 2.86493L0 8.69498V39.2826L20.4825 43.1117L20.6069 43.1351H25.3931L46 39.2827V8.69498L42.5636 2.86493ZM19.3671 40.1231L2.73278 37.0134V10.7131L19.3671 13.8229V40.1231ZM20.8601 11.3218L3.53302 8.08269L4.76199 5.99778L18.6478 9.36063L18.6654 9.36485C20.3738 9.75487 21.1383 10.4132 21.4478 11.3219L20.8601 11.3218ZM23.8999 40.4022H22.0999V14.0547H23.8999V40.4022ZM25.1398 11.3219H24.5522C24.8617 10.4131 25.6262 9.75478 27.3346 9.36477L41.2379 5.99769L42.4669 8.0826L25.1398 11.3219ZM43.2672 37.0134L26.6328 40.1231V13.8229L43.2672 10.7131V37.0134Z" fill="#7A7A7A"/>
</svg>
