<svg width="247" height="245" viewBox="0 0 247 245" fill="none" xmlns="http://www.w3.org/2000/svg">
<g clip-path="url(#clip0_25_171)">
<path d="M85.9716 207.133H161.028C161.31 207.133 161.571 207.254 161.772 207.434C161.953 207.615 162.074 207.876 162.074 208.178V218.644C162.074 218.925 161.953 219.186 161.772 219.387C161.591 219.568 161.31 219.688 161.028 219.688H85.9716C85.6902 219.688 85.4289 219.568 85.2279 219.387C85.047 219.206 84.9264 218.925 84.9264 218.644V208.178C84.9264 207.896 85.047 207.635 85.2279 207.434C85.4088 207.254 85.6701 207.133 85.9716 207.133ZM124.204 25.9745C130.998 25.9745 137.49 27.3204 143.42 29.7712C149.571 32.3225 155.119 36.059 159.742 40.6793C164.365 45.2997 168.104 50.8441 170.657 56.9912C173.109 62.9174 174.456 69.406 174.456 76.1959C174.456 83.0059 173.109 89.4744 170.657 95.4005C168.104 101.548 164.365 107.092 159.742 111.712C155.119 116.333 149.571 120.069 143.42 122.621C137.49 125.071 130.998 126.417 124.204 126.417C117.409 126.417 110.917 125.071 104.987 122.621C98.8362 120.069 93.2883 116.333 88.6651 111.712C84.0419 107.092 80.3031 101.548 77.7503 95.4005C75.298 89.4744 73.9513 82.9858 73.9513 76.1959C73.9513 69.406 75.298 62.9174 77.7503 56.9912C80.3031 50.8441 84.0419 45.2997 88.6651 40.6793C93.2883 36.059 98.8362 32.3225 104.987 29.7712C110.917 27.3204 117.409 25.9745 124.204 25.9745ZM29.4277 15.2472H76.685C79.6398 12.9571 82.856 10.8679 86.2932 9.01976C89.7908 7.15152 93.5094 5.54444 97.409 4.23868C101.49 2.85257 105.791 1.78788 110.233 1.06469C114.575 0.361594 119.058 0 123.621 0C128.184 0 132.666 0.361594 137.008 1.06469C141.45 1.78788 145.752 2.85257 149.832 4.23868C153.732 5.56453 157.45 7.17161 160.948 9.01976C164.405 10.8679 167.622 12.937 170.556 15.2472H217.552C221.512 15.2472 225.311 16.0508 228.789 17.477C232.387 18.9636 235.643 21.1733 238.357 23.8853C241.07 26.5972 243.261 29.8315 244.769 33.4474C246.216 36.9027 247 40.6994 247 44.6769V215.61C247 219.568 246.196 223.365 244.769 226.84C243.281 230.436 241.07 233.69 238.357 236.402C235.643 239.114 232.407 241.304 228.789 242.81C225.331 244.257 221.532 245.04 217.552 245.04H29.4277C25.4679 245.04 21.6688 244.237 18.1913 242.81C14.5933 241.324 11.3369 239.114 8.62329 236.402C5.90967 233.69 3.71867 230.456 2.2111 226.84C0.804037 223.345 0 219.548 0 215.59V44.6569C0 40.6994 0.804037 36.9027 2.2312 33.4274C3.71867 29.8315 5.92977 26.5772 8.64339 23.8652C11.357 21.1532 14.5933 18.9636 18.2114 17.457C21.6688 16.0307 25.4679 15.2472 29.4277 15.2472ZM33.3876 205.184C35.659 205.184 37.7294 206.109 39.2169 207.595C40.7043 209.082 41.629 211.151 41.629 213.421C41.629 215.691 40.7043 217.76 39.2169 219.246C37.7294 220.733 35.659 221.657 33.3876 221.657C31.1162 221.657 29.0659 220.733 27.5584 219.246C26.0709 217.76 25.1462 215.691 25.1462 213.421C25.1462 211.151 26.0709 209.082 27.5584 207.595L27.5986 207.555C29.1061 206.088 31.1363 205.184 33.3876 205.184ZM33.3876 42.186C35.659 42.186 37.7294 43.11 39.2169 44.5966C40.7043 46.0831 41.629 48.1523 41.629 50.4223C41.629 52.6923 40.7043 54.7413 39.2169 56.2479C37.7294 57.7345 35.659 58.6586 33.3876 58.6586C31.1162 58.6586 29.0659 57.7345 27.5584 56.2479C26.0709 54.7614 25.1462 52.6923 25.1462 50.4223C25.1462 48.1523 26.0709 46.0831 27.5584 44.5966L27.5986 44.5564C29.1061 43.0899 31.1363 42.186 33.3876 42.186ZM213.612 42.186C215.884 42.186 217.934 43.11 219.442 44.5966C220.929 46.0831 221.854 48.1523 221.854 50.4223C221.854 52.6923 220.929 54.7413 219.442 56.2479C217.954 57.7345 215.884 58.6586 213.612 58.6586C211.341 58.6586 209.271 57.7345 207.783 56.2479L207.743 56.2078C206.276 54.7212 205.371 52.6722 205.371 50.4424C205.371 48.1724 206.296 46.1032 207.783 44.6167C209.271 43.11 211.341 42.186 213.612 42.186ZM213.612 205.184C215.884 205.184 217.934 206.109 219.442 207.595C220.929 209.082 221.854 211.151 221.854 213.421C221.854 215.691 220.929 217.76 219.442 219.246L219.401 219.287C217.914 220.753 215.864 221.657 213.633 221.657C211.361 221.657 209.291 220.733 207.803 219.246C206.316 217.76 205.391 215.691 205.391 213.421C205.391 211.151 206.316 209.082 207.803 207.595C209.271 206.109 211.341 205.184 213.612 205.184ZM75.8407 25.6531H29.4277C26.8548 25.6531 24.4226 26.1754 22.1713 27.0995C19.8396 28.0637 17.7491 29.49 15.9802 31.2377C14.2113 33.0055 12.8043 35.0947 11.8394 37.425C10.9148 39.6548 10.3922 42.1056 10.3922 44.6769V215.61C10.3922 218.182 10.9148 220.633 11.8394 222.862C12.8043 225.193 14.2314 227.282 15.9802 229.05C17.7491 230.817 19.8396 232.224 22.1713 233.188C24.4025 234.112 26.8548 234.634 29.4277 234.634H217.552C220.125 234.634 222.557 234.112 224.809 233.188C227.14 232.224 229.231 230.797 231 229.05C232.769 227.282 234.176 225.193 235.14 222.862C236.065 220.633 236.588 218.182 236.588 215.61V44.6569C236.588 42.0855 236.065 39.6347 235.14 37.4049C234.176 35.0746 232.748 32.9854 231 31.2176C229.231 29.4498 227.14 28.0436 224.809 27.0794C222.577 26.1553 220.125 25.633 217.552 25.633H168.767C168.707 25.633 168.627 25.633 168.566 25.6129C168.044 25.5928 167.501 25.4924 166.998 25.3116L166.958 25.2915C166.415 25.0906 165.913 24.8094 165.451 24.4076C162.817 22.2179 159.883 20.2292 156.687 18.4815C153.531 16.7539 150.134 15.2673 146.536 14.0419C142.998 12.8366 139.259 11.9125 135.36 11.2898C131.581 10.6871 127.661 10.3657 123.601 10.3657C119.56 10.3657 115.62 10.6871 111.841 11.2898C107.982 11.9527 104.243 12.8768 100.706 14.062C97.1678 15.2472 93.8311 16.7137 90.7355 18.4011C87.6199 20.0886 84.7253 22.0371 82.0921 24.1665C81.6298 24.6286 81.067 24.9902 80.4439 25.2312C79.8207 25.4924 79.1574 25.6129 78.474 25.6129H75.8407V25.6531ZM160.807 78.6869C159.983 78.6869 159.219 78.3454 158.677 77.803C158.134 77.2606 157.792 76.4972 157.792 75.6736C157.792 74.8299 158.134 74.0866 158.677 73.5442C159.219 73.0018 159.983 72.6603 160.807 72.6603H166.878C166.496 67.9797 165.35 63.4999 163.561 59.3617C161.732 55.0828 159.219 51.1655 156.164 47.7505L152.465 51.4468L152.425 51.487C151.842 52.0494 151.078 52.3307 150.335 52.3307C149.571 52.3307 148.787 52.0294 148.204 51.4468C147.621 50.8642 147.32 50.0808 147.32 49.3174C147.32 48.5339 147.621 47.7706 148.204 47.188L151.842 43.552C148.385 40.6191 144.445 38.2486 140.164 36.521C136.023 34.8536 131.54 33.8291 126.877 33.5278V40.0164C126.877 40.8601 126.535 41.6034 125.993 42.1458C125.45 42.6882 124.686 43.0297 123.862 43.0297C123.018 43.0297 122.274 42.6882 121.731 42.1458C121.188 41.6034 120.847 40.84 120.847 40.0164V33.5479C116.203 33.9095 111.781 35.0144 107.681 36.742C103.439 38.5298 99.5598 40.9606 96.1427 43.9337L100.364 48.1523C100.947 48.7348 101.248 49.5183 101.248 50.2817C101.248 51.0651 100.947 51.8285 100.364 52.411C99.7809 52.9936 98.997 53.2949 98.2332 53.2949C97.4693 53.2949 96.6854 52.9936 96.1025 52.411L91.8813 48.1924C88.9063 51.6276 86.4741 55.5248 84.7052 59.7835C82.9967 63.9017 81.8911 68.3413 81.5494 73.0018H88.2631C89.1073 73.0018 89.8511 73.3433 90.3938 73.8857C90.9365 74.4281 91.2782 75.1915 91.2782 76.0151C91.2782 76.8387 90.9365 77.6021 90.3938 78.1445C89.8511 78.6869 89.0872 79.0284 88.2631 79.0284H81.5293C81.8308 83.7291 82.8962 88.2289 84.6047 92.3873C86.3535 96.6862 88.8058 100.624 91.7808 104.079L95.9417 99.9205C96.5246 99.3379 97.3085 99.0366 98.0724 99.0366C98.8563 99.0366 99.6201 99.3379 100.203 99.9205C100.786 100.503 101.087 101.286 101.087 102.05C101.087 102.833 100.786 103.597 100.203 104.179L96.0221 108.358C99.4794 111.391 103.459 113.882 107.761 115.69C111.942 117.438 116.465 118.543 121.209 118.864V113.701C121.209 112.878 121.55 112.114 122.093 111.572C122.636 111.029 123.4 110.688 124.224 110.688C125.048 110.688 125.812 111.029 126.354 111.572C126.897 112.114 127.239 112.878 127.239 113.701V118.904C131.983 118.563 136.525 117.458 140.727 115.71C145.068 113.902 149.028 111.391 152.506 108.338L148.546 104.38C147.963 103.798 147.661 103.014 147.661 102.251C147.661 101.467 147.963 100.704 148.546 100.121C149.129 99.5388 149.913 99.2375 150.676 99.2375C151.46 99.2375 152.224 99.5388 152.807 100.121L156.727 104.039C159.722 100.543 162.174 96.5456 163.923 92.2065C165.611 87.9879 166.657 83.4479 166.938 78.707H160.807V78.6869ZM127.741 81.3787C126.897 82.3028 125.792 82.805 124.646 82.8854C123.48 82.9657 122.294 82.6041 121.329 81.7604L121.269 81.7202C120.344 80.8966 119.842 79.7717 119.781 78.6467C119.701 77.4816 120.063 76.2963 120.907 75.3321L136.706 57.2725C137.53 56.3283 138.676 55.806 139.842 55.7256C141.008 55.6453 142.194 56.0069 143.159 56.8506C144.103 57.6742 144.626 58.8193 144.706 59.9844C144.787 61.1496 144.425 62.3348 143.581 63.299C138.294 69.3055 132.968 75.312 127.741 81.3787Z" fill="white"/>
</g>
<defs>
<clipPath id="clip0_25_171">
<rect width="247" height="245" fill="white"/>
</clipPath>
</defs>
</svg>
